Coordinates
version=1
nRows=14
nColumns=36
inDegrees=yes

Units are S.I. units (second, meters, Newtons, ...)
If the header above contains a line with 'inDegrees', this indicates whether rotational values are in degrees (yes) or radians (no).

endheader
time	pelvis_tilt	pelvis_list	pelvis_rotation	pelvis_tx	pelvis_ty	pelvis_tz	hip_flexion_r	hip_adduction_r	hip_rotation_r	knee_angle_r	knee_angle_r_beta	ankle_angle_r	subtalar_angle_r	mtp_angle_r	hip_flexion_l	hip_adduction_l	hip_rotation_l	knee_angle_l	knee_angle_l_beta	ankle_angle_l	subtalar_angle_l	mtp_angle_l	lumbar_extension	lumbar_bending	lumbar_rotation	arm_flex_r	arm_add_r	arm_rot_r	elbow_flex_r	pro_sup_r	arm_flex_l	arm_add_l	arm_rot_l	elbow_flex_l	pro_sup_l
      0.71000000	      1.01578719	      1.99238182	     -2.58057870	      0.77466915	      0.93918393	     -0.21423580	     -6.96024954	     -2.49009578	     -1.48172355	     44.61364739	      0.77865504	      0.84468957	    -13.26218092	     -6.85321528	     20.90225642	      0.01763477	     -4.44737241	     19.84187713	      0.34630609	      1.93432316	     -4.36233943	     -6.85321528	     -7.78060615	    -21.07648881	     10.61175266	     13.84924217	     -5.70172853	     10.12131931	     54.90820933	    104.37184289	      0.94995030	    -11.80500934	    -12.13957900	     28.92107432	    100.60126658
      0.72000000	      1.26270324	      2.34716657	     -2.31334357	      0.78572012	      0.93900078	     -0.21569157	     -5.47077139	     -3.03413528	     -2.10986255	     48.41552685	      0.84501035	      0.41403465	    -15.39248858	     -6.86122519	     20.56870377	      0.57545979	     -4.08790221	     21.17412379	      0.36955818	      2.93278104	     -4.95646590	     -6.86122519	     -8.52257848	    -21.91439778	      9.70476606	     13.78881608	     -5.77398206	     10.45130417	     54.92300309	    104.33894090	      1.75361127	    -11.99455648	    -12.11402932	     28.89377759	    100.60501186
      0.73000000	      1.45550790	      2.51237912	     -2.05872834	      0.79648176	      0.93890282	     -0.21696315	     -3.94717250	     -3.27046078	     -2.54267155	     51.85127545	      0.90497548	     -0.66972147	    -18.64428168	     -6.88921356	     20.25617671	      0.88390776	     -3.84495453	     22.42827749	      0.39144729	      4.03954439	     -5.21890108	     -6.88921356	     -9.19259639	    -22.49127232	      8.82024430	     13.79837709	     -5.90064556	     10.94387756	     54.73695732	    104.15353262	      2.61500539	    -12.18284215	    -11.83223843	     28.74686571	    100.62864579
      0.74000000	      1.83410631	      2.77212267	     -1.82451949	      0.80716298	      0.93925846	     -0.21830402	     -2.64559662	     -3.73460982	     -3.10689401	     55.04922560	      0.96079024	     -0.23481324	    -20.13224819	     -6.89645205	     19.55056697	      1.31945500	     -3.69510098	     23.29138019	      0.40651127	      5.01612638	     -5.44505842	     -6.89645205	    -10.12435930	    -23.13477670	      7.93474587	     13.74346108	     -5.97195326	     11.10396298	     54.68909738	    104.10938944	      3.57504477	    -12.29555022	    -11.71505859	     28.69349260	    100.63193787
      0.75000000	      2.14714845	      2.87662977	     -1.66796810	      0.81756509	      0.93981262	     -0.21942664	     -1.26375108	     -3.95223626	     -3.41419935	     57.88435773	      1.01027263	      0.20023022	    -21.39633115	     -6.90231713	     18.83877707	      1.54635053	     -3.59332995	     24.00648455	      0.41899220	      5.93359271	     -5.55343909	     -6.90231713	    -10.97119165	    -23.59112511	      7.16241642	     13.68944431	     -6.05551317	     11.26120404	     54.49422112	    104.06443180	      4.57415138	    -12.34303877	    -11.54260685	     28.64614417	    100.64317703
      0.76000000	      2.34593897	      2.89476273	     -1.58891710	      0.82780410	      0.94047408	     -0.22043608	      0.27653295	     -4.03696175	     -3.56373857	     60.40316261	      1.05423407	      0.68857066	    -22.38821097	     -6.90888609	     18.14125767	      1.65781505	     -3.58147375	     24.50746223	      0.42773591	      6.95770766	     -5.53413810	     -6.90888609	    -11.59333782	    -23.88392089	      6.52509423	     13.60945182	     -6.11934234	     11.43744708	     54.17430039	    104.00867700	      5.60981994	    -12.37688408	    -11.29651743	     28.56484010	    100.66027631
      0.77000000	      2.60520492	      2.74652447	     -1.57802461	      0.83779346	      0.94161121	     -0.22126377	      1.72806691	     -3.84785632	     -3.50062607	     62.46742990	      1.09026233	      1.01996738	    -22.78047508	     -6.91269643	     17.26117960	      1.57321381	     -3.56756360	     24.76875326	      0.43229630	      7.60912943	     -5.47412732	     -6.91269643	    -12.31385928	    -23.97330688	      5.96306578	     13.56803109	     -6.18106098	     11.48048680	     53.78027536	    103.96068020	      6.64591456	    -12.30419752	    -11.08902579	     28.63679394	    100.68728494
      0.78000000	      2.58913311	      2.70486384	     -1.67719518	      0.84781818	      0.94259649	     -0.22188970	      3.53660274	     -3.76838523	     -3.35102065	     64.30206698	      1.12228278	      1.69631478	    -22.63837337	     -6.92027464	     16.55662630	      1.56533066	     -3.75388217	     24.81491526	      0.43310197	      8.78793882	     -5.24119245	     -6.92027464	    -12.53308192	    -24.20187728	      5.62010545	     13.39751896	     -6.15546748	     11.56536526	     53.13383447	    103.88828035	      7.68805315	    -12.28527048	    -10.73089536	     28.49674758	    100.71319618
      0.79000000	      2.62535334	      2.49056904	     -1.76941191	      0.85770911	      0.94398743	     -0.22239458	      5.20991481	     -3.43812224	     -3.13575498	     65.69824660	      1.14665072	      3.27672595	    -20.72169388	     -6.94586578	     15.74722299	      1.31338398	     -4.10109556	     24.77374930	      0.43238349	      9.85115637	     -4.22253542	     -6.94586578	    -12.80366311	    -24.17726195	      5.36151695	     13.18584729	     -6.12549342	     11.42344179	     52.50716661	    103.78647100	      8.82945355	    -12.29227954	     -9.67448388	     28.15276328	    100.76197923
      0.80000000	      2.68134566	      2.36702671	     -1.90924535	      0.86759979	      0.94568684	     -0.22279461	      6.82795942	     -3.15924638	     -2.88021032	     66.68816957	      1.16392813	      3.73332538	    -19.80198982	     -6.95712896	     14.71901216	      1.25717683	     -4.16699736	     24.33028313	      0.42464355	     10.38845254	     -4.17068807	     -6.95712896	    -13.05713834	    -24.25831258	      5.08761074	     12.96465751	     -5.99139686	     11.17482103	     51.81854434	    103.73843090	      9.79787241	    -12.18195080	     -9.38387214	     28.30293236	    100.76969870
      0.81000000	      2.70276149	      2.11294105	     -1.79544566	      0.87753039	      0.94760506	     -0.22324068	      8.26241911	     -2.66430918	     -2.87829295	     67.06108667	      1.17043676	      3.79084998	    -19.63892910	     -6.95808944	     13.81493328	      1.04441733	     -4.29420325	     24.01341661	      0.41911318	     10.52870287	     -4.17530372	     -6.95808944	    -13.42485939	    -24.14875023	      4.51627938	     12.61529596	     -5.90290332	     11.18307208	     51.47513567	    103.71975518	     10.71443114	    -12.06357663	     -9.29484987	     28.62728878	    100.80383952
      0.82000000	      2.66510788	      2.09144062	     -2.06213259	      0.88738085	      0.94952330	     -0.22343654	      9.95006210	     -2.52081839	     -2.52944467	     67.56117801	      1.17916500	      5.65463426	    -16.40947617	     -6.97626746	     12.60910536	      1.12152828	     -4.32597850	     23.01322352	      0.40165652	     11.16445796	     -3.66826671	     -6.97626746	    -13.41373032	    -24.27766961	      4.43733103	     12.45427564	     -5.53198355	     10.34648347	     50.26911280	    103.70674686	     11.60181916	    -11.92411201	     -8.90775849	     28.78776964	    100.81081112
      0.83000000	      2.56279457	      1.81983240	     -2.07015855	      0.89732697	      0.95157285	     -0.22366600	     11.46592733	     -1.97847733	     -2.46586157	     67.36879085	      1.17580721	      5.76404517	    -15.77397712	     -6.98003379	     11.56238685	      0.92408455	     -4.24156241	     22.17810584	      0.38708097	     11.40032193	     -3.53465023	     -6.98003379	    -13.44014931	    -24.08266016	      4.15281449	     12.05478036	     -5.45887481	     10.19278313	     49.71305327	    103.69114340	     12.38727499	    -11.69326234	     -8.76238569	     29.21007063	    100.85295463
      0.84000000	      2.54737200	      1.69262776	     -2.03597186	      0.90729042	      0.95380187	     -0.22394369	     12.81162580	     -1.71545056	     -2.52178728	     66.98631603	      1.16913177	      7.09840066	    -13.47792459	     -7.00115087	     10.37366186	      0.88583225	     -4.24395862	     21.21097866	      0.37020142	     11.66326767	     -3.12003206	     -7.00115087	    -13.57054197	    -24.02032528	      3.80525521	     11.68607509	     -5.14234471	      9.37629372	     48.98230731	    103.78208987	     13.20926691	    -11.51343228	     -8.49132165	     29.65176962	    100.87095220
